<?xml version="1.0" encoding="UTF-8" standalone="no"?>
<!DOCTYPE svg PUBLIC "-//W3C//DTD SVG 1.1//EN" "http://www.w3.org/Graphics/SVG/1.1/DTD/svg11.dtd">
<svg width="100%" height="100%" viewBox="0 0 792 777" version="1.1" xmlns="http://www.w3.org/2000/svg" xmlns:xlink="http://www.w3.org/1999/xlink" xml:space="preserve" xmlns:serif="http://www.serif.com/" style="fill-rule:evenodd;clip-rule:evenodd;stroke-linejoin:round;stroke-miterlimit:2;">
    <g transform="matrix(1,0,0,1,-5624.02,-1235.09)">
        <g transform="matrix(4.16667,0,0,4.16667,5062.5,0)">
            <g transform="matrix(-0.309098,-0.95103,-0.95103,0.309098,218.476,440.196)">
                <path d="M-17.561,-33.56C-17.028,-34.278 -16.491,-35.087 -15.947,-35.941C-16.248,-17.079 -15.515,-1.104 -17.561,5.369C-20.036,13.202 -26.934,12.247 -26.664,-2.046C-26.394,-16.277 -22.184,-27.336 -17.561,-33.56" style="fill:rgb(246,204,93);fill-rule:nonzero;"/>
            </g>
        </g>
        <g transform="matrix(4.16667,0,0,4.16667,5062.5,0)">
            <g transform="matrix(1,0,0,1,206.206,299.033)">
                <path d="M0,181.142C-16.409,177.704 -14.381,163.383 4.077,152.253C13.32,146.68 35.813,141.699 60.738,131.56C61.841,126.117 56.783,121.516 35.266,120.061C20.302,119.049 -0.852,116.924 -9.688,101.204C-16.51,89.067 -6.07,73.941 14.262,62.139C42.404,45.803 67.411,47.154 78.12,48.336C97.386,50.462 109.734,63.2 105.255,69.829C100.594,76.726 81.978,92.934 85.664,85.649C88.607,79.832 76.003,73.278 52.134,76.142C30.646,78.721 22.877,91.636 33.356,96.192C45.085,101.291 69.638,100.966 79.821,107.013C85.177,110.192 87.902,113.924 88.63,118.014C94.97,114.322 101.21,110.174 107.187,105.472L118.443,68.652L51.989,-2.611L-42.953,19.308L-71.441,112.49L-4.987,183.753L4.067,181.663C2.672,181.568 1.305,181.415 0,181.142" style="fill:rgb(246,204,93);fill-rule:nonzero;"/>
            </g>
        </g>
        <g transform="matrix(4.16667,0,0,4.16667,5062.5,0)">
            <g transform="matrix(1,0,0,1,291.381,464.066)">
                <path d="M0,-33.536C-6.737,-22.269 -21.763,-10 -36.542,0.577C-41.655,4.237 -47.234,7.493 -52.911,10.12L4.78,-3.2L17.148,-43.656C11.854,-39.922 6.054,-36.564 0,-33.536" style="fill:rgb(246,204,93);fill-rule:nonzero;"/>
            </g>
        </g>
    </g>
</svg>
