<?xml version="1.0" encoding="UTF-8" standalone="no"?>
<!DOCTYPE svg PUBLIC "-//W3C//DTD SVG 1.1//EN" "http://www.w3.org/Graphics/SVG/1.1/DTD/svg11.dtd">
<svg width="100%" height="100%" viewBox="0 0 2577 583" version="1.1" xmlns="http://www.w3.org/2000/svg" xmlns:xlink="http://www.w3.org/1999/xlink" xml:space="preserve" xmlns:serif="http://www.serif.com/" style="fill-rule:evenodd;clip-rule:evenodd;stroke-linejoin:round;stroke-miterlimit:2;">
    <g transform="matrix(1,0,0,1,-6524.88,-1434.76)">
        <g transform="matrix(4.16667,0,0,4.16667,5062.5,0)">
            <g transform="matrix(1,0,0,1,430.175,360.454)">
                <path d="M0,14.637C5.351,13.61 10.872,12.55 13.01,12.237C15.958,8.323 17.645,3.114 17.3,-0.89C9.862,0.326 4.861,1.367 1.17,2.135C0.794,2.213 0.435,2.288 0.091,2.359C-0.088,6.516 -1.838,11.344 -4.649,15.527C-3.181,15.247 -1.599,14.944 0,14.637" style="fill:rgb(246,204,93);fill-rule:nonzero;"/>
            </g>
        </g>
        <g transform="matrix(4.16667,0,0,4.16667,5062.5,0)">
            <g transform="matrix(1,0,0,1,414.565,388.115)">
                <path d="M0,54.706C2.045,57.749 4.454,59.228 7.364,59.228C12.854,59.228 23.063,51.483 34.441,39.565L34.441,33.667C30.92,37.515 26.662,41.73 24.869,43.023C22.737,44.561 20.569,45.341 18.425,45.341C17.029,45.341 15.82,44.673 14.928,43.409C14.093,42.231 13.668,40.698 13.668,38.853C13.668,34.55 15.208,27.641 18.377,17.73L25.486,-4.522L7.442,-0.756C0.411,17.742 -3.154,32.408 -3.154,42.841C-3.154,47.602 -2.093,51.593 0,54.706" style="fill:rgb(246,204,93);fill-rule:nonzero;"/>
            </g>
        </g>
        <g transform="matrix(4.16667,0,0,4.16667,5062.5,0)">
            <g transform="matrix(1,0,0,1,490.507,457.382)">
                <path d="M0,-47.282C-1.548,-40.74 -3.754,-35.249 -6.559,-30.963C-9.485,-26.493 -12.935,-24.226 -16.81,-24.226C-19.474,-24.226 -21.638,-25.383 -23.242,-27.664C-24.776,-29.843 -25.555,-32.793 -25.555,-36.433C-25.555,-43.979 -23.516,-51.495 -19.495,-58.774C-15.377,-66.229 -10.422,-70.009 -4.77,-70.009C-2.724,-70.009 -0.997,-69.116 0.361,-67.356C1.661,-65.665 2.32,-63.515 2.32,-60.963C2.32,-58.354 1.561,-53.879 0,-47.282M-9.599,-5.651C-12.066,3.817 -14.681,10.958 -17.369,15.573C-20.194,20.42 -23.626,22.878 -27.569,22.878C-29.929,22.878 -31.9,22.06 -33.429,20.446C-34.944,18.846 -35.713,16.773 -35.713,14.283C-35.713,6.151 -27.563,-0.728 -10.799,-6.748L-9.159,-7.337L-9.599,-5.651ZM33.124,-36.067C26.482,-28.599 17.505,-21.349 11.138,-18.943L9.608,-18.365L9.909,-19.972L16.966,-57.671C17.947,-62.921 19.339,-68.371 21.107,-73.888L20.84,-73.888L15.681,-71.562C12.063,-69.953 9.079,-68.729 6.809,-67.922L6.233,-67.718L5.821,-68.168C2.26,-72.064 -1.865,-74.039 -6.437,-74.039C-14.894,-74.039 -23.024,-69.626 -30.604,-60.923C-38.216,-52.184 -42.075,-42.704 -42.075,-32.746C-42.075,-26.692 -40.787,-21.727 -38.246,-17.988C-35.747,-14.309 -32.648,-12.521 -28.773,-12.521C-25.426,-12.521 -22.037,-13.741 -18.701,-16.147C-15.26,-18.631 -11.107,-22.598 -6.36,-27.939L-4.024,-30.566L-4.774,-27.132L-8.01,-12.308L-8.12,-11.803L-8.608,-11.635C-19.927,-7.731 -28.037,-3.641 -32.713,0.523C-37.278,4.583 -39.592,9.213 -39.592,14.283C-39.592,18.028 -38.465,21.077 -36.243,23.346C-33.994,25.641 -31.106,26.757 -27.415,26.757C-20.544,26.757 -13.923,23.314 -7.735,16.522C-1.456,9.627 3.808,-0.362 7.91,-13.166L8.049,-13.599L8.478,-13.752C17.057,-16.806 26.936,-23.848 33.124,-30.249L33.124,-36.067Z" style="fill:rgb(246,204,93);fill-rule:nonzero;"/>
            </g>
        </g>
        <g transform="matrix(4.16667,0,0,4.16667,5062.5,0)">
            <g transform="matrix(1,0,0,1,566.175,383.342)">
                <path d="M0,63.851C7.917,63.851 17.632,57.861 28.878,46.044L28.878,40.237C21.26,48.955 15.726,53.2 11.993,53.2C10.27,53.2 7.378,52.492 7.378,47.752C7.378,45.349 8.85,40.412 11.879,32.66C16.13,21.785 18.285,13.901 18.285,9.225C18.285,6.526 17.525,4.354 15.962,2.583C14.428,0.845 12.564,0 10.266,0C6.726,0 2.574,1.726 -2.073,5.128C-6.835,8.613 -13.375,14.987 -21.512,24.074L-23.767,26.592L-23.099,23.279C-21.951,17.588 -19.573,9.81 -16.025,0.142L-32.319,3.281C-36.343,12.056 -39.308,20.06 -41.134,27.079C-42.987,34.188 -43.927,41.832 -43.927,49.797C-43.927,52.911 -43.679,57.611 -43.188,63.781L-28.309,60.28C-28.301,56.107 -28.225,52.717 -28.082,50.196C-27.829,46.606 -27.318,42.625 -26.564,38.35C-26.086,35.694 -24.856,33.147 -22.907,30.777L-18.681,25.871C-17.137,24.076 -15.657,22.443 -14.281,21.017C-12.744,19.379 -11.311,17.945 -10.028,16.765C-8.595,15.483 -7.319,14.47 -6.229,13.742C-4.884,12.922 -3.816,12.533 -2.935,12.533C-2.092,12.533 -0.134,12.858 -0.134,15.861C-0.134,17.601 -1.312,21.404 -3.735,27.488C-8.086,38.365 -10.292,46.528 -10.292,51.753C-10.292,55.469 -9.33,58.455 -7.434,60.63C-5.542,62.797 -3.11,63.851 0,63.851" style="fill:rgb(246,204,93);fill-rule:nonzero;"/>
            </g>
        </g>
        <g transform="matrix(4.16667,0,0,4.16667,5062.5,0)">
            <g transform="matrix(1,0,0,1,398.894,429.92)">
                <path d="M0,-28.797C1.448,-31.658 -4.752,-34.882 -16.491,-33.473C-27.06,-32.205 -30.881,-25.853 -25.727,-23.612C-19.958,-21.104 -7.882,-21.264 -2.873,-18.29C8.858,-11.324 -4.897,1.001 -18.213,10.531C-25.743,15.92 -35.315,19.598 -42.133,18.17C-50.203,16.479 -49.206,9.435 -40.127,3.961C-31.351,-1.331 1.705,-5.513 20.802,-29.031C21.731,-30.176 20.06,-25.44 18.963,-23.123C9.57,-3.282 -29.007,2.585 -35.94,7.537C-39.228,9.886 -37.732,12.968 -31.088,10.668C-24.472,8.378 -19.939,4.728 -17.73,1.62C-14.345,-3.146 -4.072,-10.471 -24.787,-11.872C-32.147,-12.37 -42.552,-13.415 -46.897,-21.147C-50.253,-27.116 -45.118,-34.556 -35.118,-40.36C-21.276,-48.395 -8.978,-47.731 -3.71,-47.149C5.766,-46.104 11.839,-39.839 9.636,-36.578C7.344,-33.186 -1.812,-25.214 0,-28.797" style="fill:rgb(246,204,93);fill-rule:nonzero;"/>
            </g>
        </g>
        <g transform="matrix(4.16667,0,0,4.16667,5062.5,0)">
            <g transform="matrix(1,0,0,1,0,-289.982)">
                <path d="M642.862,678.64L618.814,678.64L618.814,671.615L642.862,671.615L642.862,678.64ZM636.782,730.929L636.782,735.658L602.193,735.658L602.193,730.929L617.465,728.227L620.164,728.227L636.782,730.929ZM613.407,678.64L602.062,678.64L602.062,672.831L617.327,670.804L613.407,672.831C614.76,657.293 616.921,649.051 623.001,642.565C628.812,636.215 635.705,634.324 641.785,634.324C648.134,634.324 653.269,636.349 654.621,641.484C654.349,644.862 651.378,647.429 646.513,647.429C643.135,647.429 640.163,646.078 636.92,643.646L630.298,638.648L641.647,635.944L644.756,639.998C643.27,639.188 641.108,638.377 639.487,638.377C635.433,638.377 630.84,641.349 628.272,645.942C625.164,651.347 623.138,660.4 624.218,676.884L624.218,707.284C624.218,716.742 624.353,726.2 624.622,735.658L613.004,735.658C613.275,726.2 613.407,716.742 613.407,707.284L613.407,678.64Z" style="fill:rgb(231,238,223);fill-rule:nonzero;"/>
            </g>
        </g>
        <g transform="matrix(4.16667,0,0,4.16667,5062.5,0)">
            <g transform="matrix(1,0,0,1,666.11,437.163)">
                <path d="M0,-81.067C0,-86.201 3.917,-89.58 8.92,-89.58C13.917,-89.58 17.837,-86.201 17.837,-81.067C17.837,-76.068 13.917,-72.556 8.92,-72.556C3.917,-72.556 0,-76.068 0,-81.067M24.186,3.784L24.186,8.513L-6.891,8.513L-6.891,3.784L7.972,1.082L10.674,1.082L24.186,3.784ZM3.379,8.513C3.647,2.433 3.785,-11.484 3.785,-19.861L3.785,-26.211C3.785,-33.643 3.647,-37.831 3.379,-43.236L-7.701,-44.451L-7.701,-49.18L12.702,-57.287L14.728,-55.936L14.323,-37.696L14.323,-19.861C14.323,-11.484 14.456,2.433 14.728,8.513L3.379,8.513Z" style="fill:rgb(231,238,223);fill-rule:nonzero;"/>
            </g>
        </g>
        <g transform="matrix(4.16667,0,0,4.16667,5062.5,0)">
            <g transform="matrix(1,0,0,1,758.793,387.307)">
                <path d="M0,50.938L13.512,53.64L13.512,58.369L-17.564,58.369L-17.564,53.64L-2.699,50.938L0,50.938ZM3.65,17.565L3.65,29.995C3.65,38.642 3.785,52.289 4.057,58.369L-7.564,58.369C-7.295,52.289 -7.157,38.642 -7.157,29.995L-7.157,18.646C-7.157,6.08 -10.401,2.027 -18.51,2.027C-25.266,2.027 -30.805,4.729 -38.506,11.349L-41.343,11.349L-41.343,5.27L-34.452,5.27L-40.263,7.702C-33.913,-0.811 -23.103,-7.431 -13.51,-7.431C-1.892,-7.431 3.65,-0.27 3.65,17.565M-27.561,53.64L-27.561,58.369L-58.638,58.369L-58.638,53.64L-43.775,50.938L-41.073,50.938L-27.561,53.64ZM-48.641,58.369C-48.368,52.289 -48.233,38.373 -48.233,29.995L-48.233,23.646C-48.233,16.213 -48.368,12.025 -48.641,6.62L-59.448,5.405L-59.448,0.676L-41.073,-7.431L-39.048,-6.08L-37.426,9.593L-37.426,29.995C-37.426,38.373 -37.288,52.289 -37.02,58.369L-48.641,58.369Z" style="fill:rgb(231,238,223);fill-rule:nonzero;"/>
            </g>
        </g>
        <g transform="matrix(4.16667,0,0,4.16667,5062.5,0)">
            <g transform="matrix(1,0,0,1,840.939,478.103)">
                <path d="M0,-98.227L2.022,-96.876L2.022,-88.499L-17.839,-88.499L-17.839,-92.147L0,-98.227ZM-45.941,-75.934C-45.941,-66.071 -41.076,-59.314 -32.698,-59.314C-23.919,-59.314 -18.647,-66.476 -18.647,-76.475C-18.647,-86.067 -23.513,-92.823 -32.025,-92.823C-40.672,-92.823 -45.941,-85.796 -45.941,-75.934M-32.159,-98.227C-18.378,-98.227 -8.109,-90.931 -8.109,-76.069C-8.109,-61.747 -18.647,-53.911 -32.294,-53.911C-46.211,-53.911 -56.479,-61.207 -56.479,-76.069C-56.479,-90.391 -45.941,-98.227 -32.159,-98.227M-8.378,-19.997C-8.378,-26.076 -12.16,-30.671 -22.028,-30.671L-37.971,-30.671C-40.269,-30.671 -42.698,-30.806 -44.727,-31.076L-44.727,-31.481C-51.614,-32.967 -55.127,-36.48 -55.127,-42.155C-55.127,-46.884 -52.021,-52.018 -42.835,-59.991L-39.861,-57.963C-43.913,-53.64 -45.672,-50.667 -45.672,-46.614C-45.672,-42.965 -44.185,-40.534 -37.833,-40.534L-20,-40.534C-5.542,-40.534 1.347,-34.184 1.347,-23.24C1.347,-11.62 -9.73,0 -31.621,0C-51.076,0 -59.586,-6.756 -59.586,-16.483C-59.586,-23.103 -55.399,-28.103 -41.753,-33.913L-41.076,-33.103C-46.48,-27.833 -48.644,-23.78 -48.644,-18.511C-48.644,-9.593 -41.753,-6.08 -31.214,-6.08C-16.35,-6.08 -8.378,-12.294 -8.378,-19.997" style="fill:rgb(231,238,223);fill-rule:nonzero;"/>
            </g>
        </g>
        <g transform="matrix(4.16667,0,0,4.16667,5062.5,0)">
            <g transform="matrix(1,0,0,1,906.731,421.626)">
                <path d="M0,-15.942C0,-12.835 -0.406,-10.133 -0.945,-8.377L-50.8,-8.377L-50.8,-14.051L-18.646,-14.051C-12.159,-14.051 -10.676,-17.158 -10.676,-20.942C-10.676,-28.644 -17.156,-35.669 -25.672,-35.669C-34.319,-35.669 -44.319,-28.373 -44.319,-9.053C-44.319,8.107 -35.672,17.294 -22.159,17.294C-13.512,17.294 -8.108,13.376 -3.243,7.702L-0.132,10.134C-4.997,19.727 -13.644,25.807 -25.941,25.807C-44.044,25.807 -55.803,13.242 -55.803,-7.295C-55.803,-27.967 -41.752,-41.749 -24.996,-41.749C-11.076,-41.749 0,-32.291 0,-15.942" style="fill:rgb(231,238,223);fill-rule:nonzero;"/>
            </g>
        </g>
        <g transform="matrix(4.16667,0,0,4.16667,5062.5,0)">
            <g transform="matrix(1,0,0,1,934.828,426.49)">
                <path d="M0,-27.428L7.701,-27.428L4.326,-26.483C8.646,-39.048 16.888,-46.614 24.858,-46.614C28.778,-46.614 32.835,-44.722 34.457,-42.021C34.457,-35.67 32.021,-32.157 26.617,-32.157C23.512,-32.157 20.944,-33.373 18.509,-35.399L14.864,-38.507L21.483,-39.859C13.105,-35.535 8.24,-28.779 5.134,-18.375L0,-18.375L0,-27.428ZM-15.536,14.457L-0.677,11.755L2.028,11.755L16.888,14.457L16.888,19.186L-15.536,19.186L-15.536,14.457ZM-5.404,-9.188L-5.404,-15.537C-5.404,-22.97 -5.542,-27.157 -5.812,-32.563L-16.619,-33.778L-16.619,-38.507L1.759,-46.614L3.781,-45.263L5.403,-28.374L5.403,-9.188C5.403,-0.81 5.541,13.106 5.811,19.186L-5.812,19.186C-5.542,13.106 -5.404,-0.81 -5.404,-9.188" style="fill:rgb(231,238,223);fill-rule:nonzero;"/>
            </g>
        </g>
    </g>
</svg>
